<svg width="46" height="46" viewBox="0 0 46 46" fill="none" xmlns="http://www.w3.org/2000/svg">
<path d="M23.0761 39.4122C18.3812 39.4122 13.5826 40.7503 8.99141 41.3252C7.66988 41.4922 6.35554 40.9543 5.44864 39.8749C4.54174 38.7959 4.14989 37.3038 4.39243 35.8531C5.11226 31.5505 5.43275 27.1431 5.3506 22.7187C5.43275 18.2944 5.11226 13.887 4.39243 9.58433C4.14989 8.1337 4.54174 6.64159 5.44864 5.56258C6.35554 4.48357 7.66988 3.9453 8.99141 4.1123C10.5129 4.30286 13.6869 5.31155 17.29 4.65515C19.1406 4.31798 21.1145 4.13691 23.0761 4.15062H22.9823C24.9439 4.13691 26.9178 4.31798 28.7685 4.65515C32.3715 5.31155 35.5455 4.30286 37.067 4.1123C38.3886 3.9453 39.7029 4.48357 40.6098 5.56258C41.5167 6.64159 41.9086 8.1337 41.6663 9.58433C40.9462 13.887 40.6257 18.2944 40.7078 22.7187C40.6257 27.1431 40.9462 31.5505 41.6663 35.8531C41.9086 37.3038 41.5167 38.7959 40.6098 39.8749C39.7029 40.9543 38.3886 41.4922 37.067 41.3252C32.4759 40.7503 27.6772 39.4122 22.9823 39.4122M4.32198 8.28945C3.95622 8.03069 3.46874 7.72165 3.11917 7.36514C1.2451 5.45429 0.468015 2.89899 1.38511 1.66213C2.30221 0.424908 4.56812 0.971971 6.44219 2.88247C6.79176 3.23897 7.25765 3.69357 7.52717 4.08242C5.44534 5.01235 4.5903 6.23902 4.32198 8.28945ZM4.45569 37.5646C4.11212 37.8624 3.65132 38.2235 3.33143 38.6166C1.61746 40.7233 1.04663 43.3524 2.05787 44.4841C3.0691 45.6155 5.28165 44.8238 6.99592 42.7167C7.31581 42.3237 7.74363 41.8202 7.98107 41.4036C5.83449 40.705 4.88591 39.5771 4.45569 37.5646ZM41.666 37.5646C42.0099 37.8624 42.4704 38.2235 42.7903 38.6166C44.5046 40.7233 45.0754 43.3524 44.0641 44.4841C43.0529 45.6155 40.8404 44.8238 39.1261 42.7167C38.8062 42.3237 38.3784 41.8202 38.1409 41.4036C40.2875 40.705 41.2361 39.5771 41.666 37.5646ZM41.6783 8.28945C42.0438 8.03069 42.5312 7.72165 42.8811 7.36514C44.7549 5.45429 45.532 2.89899 44.6149 1.66213C43.6981 0.424907 41.4322 0.971969 39.5581 2.88247C39.2082 3.23897 38.7423 3.69357 38.4731 4.08242C40.5549 5.01235 41.4097 6.23902 41.6783 8.28945Z" stroke="black" stroke-width="0.8" stroke-miterlimit="1.5" stroke-linecap="round" stroke-linejoin="round"/>
<path d="M41.0098 13.2143C40.0943 14.306 38.7676 14.8506 37.4337 14.6816C35.8979 14.4888 32.694 13.4683 29.0571 14.1324C27.1891 14.4735 25.1966 14.6567 23.2165 14.6429L23.3113 14.6429C21.3312 14.6567 19.3388 14.4735 17.4707 14.1324C13.8338 13.4683 10.6299 14.4888 9.09412 14.6816C7.76017 14.8506 5.9266 14.306 5.01117 13.2143" stroke="black" stroke-width="0.8" stroke-miterlimit="1.5" stroke-linecap="round" stroke-linejoin="round"/>
<g clip-path="url(#clip0_15_109)">
<path d="M37.5048 8.48779H38.6393C38.6823 8.48779 38.7235 8.50783 38.7539 8.54349C38.7843 8.57916 38.8013 8.62752 38.8013 8.67796V10.0091C38.8013 10.0596 38.7843 10.1079 38.7539 10.1436C38.7235 10.1793 38.6823 10.1993 38.6393 10.1993H37.5048C37.4619 10.1993 37.4206 10.1793 37.3902 10.1436C37.3598 10.1079 37.3428 10.0596 37.3428 10.0091V8.67796C37.3428 8.62752 37.3598 8.57916 37.3902 8.54349C37.4206 8.50783 37.4619 8.48779 37.5048 8.48779Z" stroke="black" stroke-width="0.3" stroke-linecap="round" stroke-linejoin="round"/>
<path d="M38.3963 8.48779V8.96321H37.748V8.48779" stroke="black" stroke-width="0.3" stroke-linecap="round" stroke-linejoin="round"/>
<path d="M37.748 9.43872H38.3963V10.1994H37.748V9.43872Z" stroke="black" stroke-width="0.3" stroke-linecap="round" stroke-linejoin="round"/>
</g>
<path d="M28.0054 8.55908H27.0482C26.9601 8.55908 26.8887 8.65087 26.8887 8.76411V9.99425C26.8887 10.1075 26.9601 10.1993 27.0482 10.1993H28.0054C28.0935 10.1993 28.1649 10.1075 28.1649 9.99425V8.76411C28.1649 8.65087 28.0935 8.55908 28.0054 8.55908Z" stroke="black" stroke-width="0.3" stroke-linecap="round" stroke-linejoin="round"/>
<path d="M17.7844 8.68472C17.8098 8.64992 17.8443 8.63037 17.8803 8.63037C17.8981 8.63037 17.9157 8.63517 17.9321 8.6445C17.9486 8.65382 17.9635 8.66749 17.9761 8.68472C17.9887 8.70195 17.9987 8.7224 18.0055 8.74491C18.0123 8.76742 18.0158 8.79155 18.0158 8.81592C18.0158 8.84029 18.0123 8.86441 18.0055 8.88692C17.9987 8.90944 17.9887 8.92989 17.9761 8.94712L17.1774 10.0405L16.9219 10.1279L16.9858 9.77807L17.7844 8.68472Z" stroke="black" stroke-width="0.2" stroke-linecap="round" stroke-linejoin="round"/>
<ellipse cx="8.38422" cy="9.37916" rx="0.638122" ry="0.748784" fill="black"/>
<ellipse cx="9.90375" cy="9.37916" rx="0.638122" ry="0.748784" fill="black"/>
<ellipse cx="11.4233" cy="9.37916" rx="0.638122" ry="0.748784" fill="black"/>
<defs>
<clipPath id="clip0_15_109">
<rect width="1.94475" height="2.28201" fill="white" transform="translate(37.0996 8.20264)"/>
</clipPath>
</defs>
</svg>
