<svg width="68" height="68" viewBox="0 0 68 68" fill="none" xmlns="http://www.w3.org/2000/svg">
<path d="M34.1142 58.6183C27.0719 58.6183 19.8739 60.6255 12.9871 61.4878C11.0048 61.7383 9.03331 60.9314 7.67296 59.3124C6.3126 57.6938 5.72484 55.4557 6.08865 53.2797C7.16839 46.8257 7.64912 40.2146 7.5259 33.5781C7.64912 26.9416 7.16839 20.3305 6.08865 13.8765C5.72484 11.7006 6.3126 9.46238 7.67296 7.84387C9.03331 6.22536 11.0048 5.41795 12.9871 5.66845C15.2694 5.95429 20.0304 7.46732 25.4349 6.48272C28.211 5.97697 31.1718 5.70537 34.1142 5.72594H33.9735C36.9159 5.70537 39.8767 5.97697 42.6528 6.48272C48.0573 7.46732 52.8183 5.95429 55.1006 5.66845C57.0829 5.41795 59.0544 6.22536 60.4147 7.84387C61.7751 9.46238 62.3628 11.7006 61.9995 13.8765C60.9193 20.3305 60.4386 26.9416 60.5618 33.5781C60.4386 40.2146 60.9193 46.8257 61.9995 53.2797C62.3628 55.4557 61.7751 57.6938 60.4147 59.3124C59.0544 60.9314 57.0829 61.7383 55.1006 61.4878C48.2138 60.6255 41.0158 58.6183 33.9735 58.6183M5.98297 11.9342C5.43433 11.546 4.70311 11.0825 4.17876 10.5477C1.36766 7.68144 0.202023 3.84849 1.57767 1.99319C2.95331 0.137362 6.35218 0.957956 9.16328 3.8237C9.68763 4.35846 10.3865 5.04035 10.7908 5.62363C7.66801 7.01853 6.38545 8.85854 5.98297 11.9342ZM6.18354 55.847C5.66818 56.2937 4.97698 56.8353 4.49715 57.4249C1.92619 60.5849 1.06995 64.5286 2.5868 66.2262C4.10366 67.9233 7.42247 66.7356 9.99388 63.5751C10.4737 62.9855 11.1154 62.2303 11.4716 61.6054C8.25173 60.5575 6.82886 58.8657 6.18354 55.847ZM61.999 55.847C62.5148 56.2937 63.2056 56.8353 63.6854 57.4249C66.2568 60.5849 67.1131 64.5286 65.5962 66.2262C64.0794 67.9233 60.7605 66.7356 58.1891 63.5751C57.7093 62.9855 57.0676 62.2303 56.7114 61.6054C59.9313 60.5575 61.3542 58.8657 61.999 55.847ZM62.0175 11.9342C62.5657 11.546 63.2969 11.0825 63.8217 10.5477C66.6323 7.68144 67.798 3.84849 66.4223 1.99319C65.0471 0.137361 61.6483 0.957954 58.8372 3.8237C58.3124 4.35846 57.6135 5.04035 57.2097 5.62362C60.3324 7.01853 61.6145 8.85854 62.0175 11.9342Z" stroke="black" stroke-width="1.5" stroke-miterlimit="1.5" stroke-linecap="round" stroke-linejoin="round"/>
<path d="M61.0146 19.3215C59.6415 20.959 57.6515 21.7759 55.6505 21.5224C53.3468 21.2333 48.5411 19.7025 43.0857 20.6986C40.2836 21.2103 37.2949 21.4851 34.3248 21.4643L34.4669 21.4643C31.4968 21.4851 28.5081 21.2103 25.706 20.6986C20.2507 19.7025 15.4449 21.2332 13.1412 21.5224C11.1403 21.7759 8.3899 20.959 7.01676 19.3215" stroke="black" stroke-width="1.5" stroke-miterlimit="1.5" stroke-linecap="round" stroke-linejoin="round"/>
<g clip-path="url(#clip0_15_125)">
<path d="M55.7568 12.2319H57.4584C57.5229 12.2319 57.5847 12.262 57.6303 12.3155C57.6759 12.369 57.7015 12.4415 57.7015 12.5172V14.5139C57.7015 14.5896 57.6759 14.6622 57.6303 14.7156C57.5847 14.7691 57.5229 14.7992 57.4584 14.7992H55.7568C55.6923 14.7992 55.6305 14.7691 55.5849 14.7156C55.5393 14.6622 55.5137 14.5896 55.5137 14.5139V12.5172C55.5137 12.4415 55.5393 12.369 55.5849 12.3155C55.6305 12.262 55.6923 12.2319 55.7568 12.2319Z" stroke="black" stroke-width="0.5" stroke-linecap="round" stroke-linejoin="round"/>
<path d="M57.0944 12.2319V12.9451H56.1221V12.2319" stroke="black" stroke-width="0.5" stroke-linecap="round" stroke-linejoin="round"/>
<path d="M56.1221 13.6582H57.0944V14.7992H56.1221V13.6582Z" stroke="black" stroke-width="0.5" stroke-linecap="round" stroke-linejoin="round"/>
</g>
<path d="M41.5081 12.3386H40.0723C39.9401 12.3386 39.833 12.4763 39.833 12.6462V14.4914C39.833 14.6612 39.9401 14.7989 40.0723 14.7989H41.5081C41.6402 14.7989 41.7474 14.6612 41.7474 14.4914V12.6462C41.7474 12.4763 41.6402 12.3386 41.5081 12.3386Z" stroke="black" stroke-width="0.5" stroke-linecap="round" stroke-linejoin="round"/>
<path d="M26.1766 12.5271C26.2148 12.4749 26.2665 12.4456 26.3204 12.4456C26.3471 12.4456 26.3735 12.4528 26.3982 12.4667C26.4229 12.4807 26.4453 12.5012 26.4641 12.5271C26.483 12.5529 26.498 12.5836 26.5082 12.6174C26.5184 12.6511 26.5237 12.6873 26.5237 12.7239C26.5237 12.7604 26.5184 12.7966 26.5082 12.8304C26.498 12.8642 26.483 12.8948 26.4641 12.9207L25.2662 14.5607L24.8828 14.6919L24.9787 14.1671L26.1766 12.5271Z" stroke="black" stroke-width="0.3" stroke-linecap="round" stroke-linejoin="round"/>
<ellipse cx="12.0763" cy="13.5687" rx="0.957182" ry="1.12318" fill="black"/>
<ellipse cx="14.3556" cy="13.5687" rx="0.957182" ry="1.12318" fill="black"/>
<ellipse cx="16.6349" cy="13.5687" rx="0.957182" ry="1.12318" fill="black"/>
<defs>
<clipPath id="clip0_15_125">
<rect width="2.91713" height="3.42301" fill="white" transform="translate(55.1494 11.804)"/>
</clipPath>
</defs>
</svg>
