<svg width="24" height="24" viewBox="0 0 24 24" fill="none" xmlns="http://www.w3.org/2000/svg">
<path d="M12.0381 20.2061C9.69062 20.2061 7.29129 20.8752 4.9957 21.1626C4.33494 21.2461 3.67777 20.9771 3.22432 20.4375C2.77087 19.8979 2.57495 19.1519 2.69622 18.4266C3.05613 16.2752 3.21637 14.0715 3.1753 11.8594C3.21637 9.64721 3.05613 7.4435 2.69622 5.29216C2.57495 4.56685 2.77087 3.82079 3.22432 3.28129C3.67777 2.74179 4.33494 2.47265 4.9957 2.55615C5.75645 2.65143 7.34346 3.15577 9.14498 2.82757C10.0703 2.65899 11.0573 2.56846 12.0381 2.57531H11.9912C12.972 2.56846 13.9589 2.65899 14.8843 2.82757C16.6858 3.15577 18.2728 2.65143 19.0335 2.55615C19.6943 2.47265 20.3515 2.74179 20.8049 3.28129C21.2584 3.82079 21.4543 4.56685 21.3332 5.29216C20.9731 7.4435 20.8129 9.64721 20.8539 11.8594C20.8129 14.0715 20.9731 16.2752 21.3332 18.4266C21.4543 19.1519 21.2584 19.8979 20.8049 20.4375C20.3515 20.9771 19.6943 21.2461 19.0335 21.1626C16.7379 20.8752 14.3386 20.2061 11.9912 20.2061M2.66099 4.64473C2.47811 4.51534 2.23437 4.36082 2.05959 4.18257C1.12255 3.22715 0.734008 1.9495 1.19256 1.33106C1.6511 0.712454 2.78406 0.985985 3.72109 1.94123C3.89588 2.11949 4.12882 2.34678 4.26359 2.54121C3.22267 3.00618 2.79515 3.61951 2.66099 4.64473ZM2.72785 19.2823C2.55606 19.4312 2.32566 19.6118 2.16572 19.8083C1.30873 20.8616 1.02332 22.1762 1.52893 22.7421C2.03455 23.3078 3.14082 22.9119 3.99796 21.8584C4.15791 21.6618 4.37181 21.4101 4.49054 21.2018C3.41724 20.8525 2.94295 20.2886 2.72785 19.2823ZM21.333 19.2823C21.5049 19.4312 21.7352 19.6118 21.8951 19.8083C22.7523 20.8616 23.0377 22.1762 22.5321 22.7421C22.0265 23.3078 20.9202 22.9119 20.063 21.8584C19.9031 21.6618 19.6892 21.4101 19.5705 21.2018C20.6438 20.8525 21.1181 20.2886 21.333 19.2823ZM21.3392 4.64473C21.5219 4.51534 21.7656 4.36082 21.9406 4.18257C22.8774 3.22715 23.266 1.9495 22.8074 1.33106C22.349 0.712454 21.2161 0.985985 20.2791 1.94123C20.1041 2.11949 19.8712 2.34678 19.7366 2.54121C20.7775 3.00618 21.2048 3.61951 21.3392 4.64473Z" stroke="black" stroke-width="0.6" stroke-miterlimit="1.5" stroke-linecap="round" stroke-linejoin="round"/>
<path d="M21.0049 7.10717C20.5472 7.653 19.8838 7.92529 19.2168 7.84081C18.4489 7.74442 16.847 7.23416 15.0286 7.56621C14.0945 7.73677 13.0983 7.82836 12.1083 7.82143L12.1556 7.82143C11.1656 7.82836 10.1694 7.73677 9.23534 7.56621C7.41689 7.23416 5.81496 7.74442 5.04706 7.84081C4.38008 7.92529 3.4633 7.653 3.00558 7.10717" stroke="black" stroke-width="0.6" stroke-miterlimit="1.5" stroke-linecap="round" stroke-linejoin="round"/>
<g clip-path="url(#clip0_15_93)">
<path d="M19.2519 4.7439H19.8191C19.8406 4.7439 19.8613 4.75391 19.8764 4.77175C19.8916 4.78958 19.9002 4.81376 19.9002 4.83898V5.50457C19.9002 5.52978 19.8916 5.55397 19.8764 5.5718C19.8613 5.58963 19.8406 5.59965 19.8191 5.59965H19.2519C19.2304 5.59965 19.2098 5.58963 19.1946 5.5718C19.1794 5.55397 19.1709 5.52978 19.1709 5.50457V4.83898C19.1709 4.81376 19.1794 4.78958 19.1946 4.77175C19.2098 4.75391 19.2304 4.7439 19.2519 4.7439Z" stroke="black" stroke-width="0.1" stroke-linecap="round" stroke-linejoin="round"/>
<path d="M19.6981 4.7439V4.98161H19.374V4.7439" stroke="black" stroke-width="0.1" stroke-linecap="round" stroke-linejoin="round"/>
<path d="M19.374 5.21948H19.6981V5.59982H19.374V5.21948Z" stroke="black" stroke-width="0.1" stroke-linecap="round" stroke-linejoin="round"/>
</g>
<path d="M14.5027 4.77954H14.0241C13.98 4.77954 13.9443 4.82544 13.9443 4.88205V5.49713C13.9443 5.55374 13.98 5.59964 14.0241 5.59964H14.5027C14.5467 5.59964 14.5825 5.55374 14.5825 5.49713V4.88205C14.5825 4.82544 14.5467 4.77954 14.5027 4.77954Z" stroke="black" stroke-width="0.1" stroke-linecap="round" stroke-linejoin="round"/>
<path d="M9.39221 4.84236C9.40492 4.82496 9.42216 4.81519 9.44013 4.81519C9.44903 4.81519 9.45784 4.81759 9.46606 4.82225C9.47429 4.82691 9.48176 4.83374 9.48805 4.84236C9.49434 4.85097 9.49933 4.8612 9.50274 4.87246C9.50615 4.88371 9.5079 4.89578 9.5079 4.90796C9.5079 4.92014 9.50615 4.93221 9.50274 4.94346C9.49933 4.95472 9.49434 4.96495 9.48805 4.97356L9.08872 5.52024L8.96094 5.56397L8.99288 5.38903L9.39221 4.84236Z" stroke="black" stroke-width="0.1" stroke-linecap="round" stroke-linejoin="round"/>
<ellipse cx="4.69211" cy="5.18958" rx="0.319061" ry="0.374392" fill="black"/>
<ellipse cx="5.45187" cy="5.18958" rx="0.319061" ry="0.374392" fill="black"/>
<ellipse cx="6.21164" cy="5.18958" rx="0.319061" ry="0.374392" fill="black"/>
<defs>
<clipPath id="clip0_15_93">
<rect width="0.972376" height="1.141" fill="white" transform="translate(19.0498 4.60132)"/>
</clipPath>
</defs>
</svg>
